<svg width="7" height="7" viewBox="0 0 7 7" fill="none" xmlns="http://www.w3.org/2000/svg">
<path d="M6.37337 3.33001C6.02523 2.20991 4.92027 1.44553 3.59584 1.42282V0.113523C3.59584 0.0529774 3.54286 0 3.48232 0C3.45961 0 3.43691 0.0075682 3.4142 0.0227046L0.0463552 2.45966C-0.00662218 2.49751 -0.0141904 2.56562 0.0236506 2.6186C0.0312188 2.62616 0.038787 2.63373 0.0463552 2.6413L3.4142 5.06312C3.46718 5.10097 3.53529 5.08583 3.57313 5.04042C3.58827 5.01771 3.59584 4.99501 3.59584 4.97231V3.67058C4.4132 3.67058 5.10191 4.05655 5.34409 4.63931C5.54843 5.13881 5.38193 5.67615 4.89757 6.12267C4.85216 6.16808 4.84459 6.23619 4.89 6.2816C4.91271 6.30431 4.94298 6.31944 4.97325 6.31944H5.06407C5.08677 6.31944 5.10948 6.31188 5.12462 6.29674C6.23714 5.56262 6.71394 4.41983 6.37337 3.33001Z" fill="#FF004F"/>
</svg>
